<?xml version="1.0" encoding="UTF-8"?>
<svg id="Camada_1" xmlns="http://www.w3.org/2000/svg" version="1.1" viewBox="0 0 500 200">
  <!-- Generator: Adobe Illustrator 29.3.1, SVG Export Plug-In . SVG Version: 2.1.0 Build 151)  -->
  <defs>
    <style>
      .st0 {
        fill: #00cc3e;
      }

      .st1 {
        fill: #fff;
      }

      .st2 {
        fill: none;
        stroke: #21a34c;
        stroke-miterlimit: 10;
        stroke-width: 9px;
      }
    </style>
  </defs>
  <path class="st0" d="M360.73,143.06l-30.02-43.06,27.3-39.15h-26.49c-2.79,0-5.4,1.36-7,3.65l-24.74,35.5,27.47,39.41c1.59,2.29,4.21,3.65,7,3.65h26.48Z"/>
  <path class="st1" d="M182.42,85.93v27.65c0,11.36-1.2,21.6-3.58,30.74-2.39,9.14-6.5,16.96-12.35,23.46-5.84,6.5-13.7,11.48-23.58,14.94-9.88,3.46-22.22,5.18-37.04,5.18h-3.46c-16.79,0-30.45-2.3-40.99-6.91-10.54-4.61-18.68-10.86-24.44-18.77-5.76-7.9-9.67-17.2-11.73-27.9-2.06-10.7-3.09-22.14-3.09-34.32s1.03-23.62,3.09-34.32c2.06-10.7,5.96-20,11.73-27.9,5.76-7.9,13.91-14.15,24.44-18.76,10.53-4.61,24.2-6.91,40.99-6.91h1.98c13.66,0,25.06,1.28,34.2,3.83,9.14,2.55,16.58,6.3,22.34,11.23,5.76,4.94,10.08,10.99,12.96,18.15,2.88,7.16,4.9,15.43,6.05,24.81h-44.44c-.66-4.28-1.98-7.69-3.95-10.25-1.98-2.55-4.24-4.44-6.79-5.68-2.55-1.23-5.27-2.01-8.15-2.35-2.88-.33-5.72-.49-8.52-.49h-7.9c-3.95,0-7.78.62-11.48,1.85-3.7,1.23-7,3.67-9.88,7.28-2.88,3.62-5.23,8.56-7.04,14.81-1.81,6.26-2.72,14.49-2.72,24.69s.9,18.23,2.72,24.57c1.81,6.34,4.16,11.32,7.04,14.94,2.88,3.62,6.17,6.05,9.88,7.28,3.7,1.23,7.53,1.85,11.48,1.85h7.9c3.12,0,6.38-.25,9.75-.74,3.37-.49,6.5-1.56,9.38-3.21,2.88-1.64,5.27-4.15,7.16-7.53,1.89-3.37,2.84-7.86,2.84-13.46h-21.35c-9.07,0-16.42-7.35-16.42-16.42v-21.35h82.96Z"/>
  <path class="st1" d="M358.76,12.1l-28.03,40.2h49.5v118.83c0,9.26,7.51,16.77,16.77,16.77h31.27V52.3h49.56V12.1h-119.06Z"/>
  <path class="st1" d="M283.4,100.01l61.28,87.89h-43.03c-5.45,0-10.57-2.66-13.7-7.12l-43.73-62.19v69.31h-31.13c-9.16,0-16.59-7.43-16.59-16.59V12.1h47.71v69.32l48.73-69.32h51.73v.02s-27.86,39.93-27.86,39.93l-33.42,47.95Z"/>
  <path class="st2" d="M372.02,77.29"/>
</svg>